<svg width="21" height="20" viewBox="0 0 21 20" fill="none" xmlns="http://www.w3.org/2000/svg">
<path d="M10.0331 11.6667V13.3333C8.70262 13.3333 7.42662 13.8601 6.48581 14.7978C5.545 15.7355 5.01646 17.0072 5.01646 18.3333H3.34424C3.34424 16.5652 4.04896 14.8695 5.30337 13.6193C6.55778 12.369 8.25912 11.6667 10.0331 11.6667ZM10.0331 10.8333C7.26142 10.8333 5.01646 8.59583 5.01646 5.83333C5.01646 3.07083 7.26142 0.833328 10.0331 0.833328C12.8048 0.833328 15.0498 3.07083 15.0498 5.83333C15.0498 8.59583 12.8048 10.8333 10.0331 10.8333ZM10.0331 9.16666C11.8809 9.16666 13.3776 7.67499 13.3776 5.83333C13.3776 3.99166 11.8809 2.49999 10.0331 2.49999C8.18532 2.49999 6.68868 3.99166 6.68868 5.83333C6.68868 7.67499 8.18532 9.16666 10.0331 9.16666ZM17.5581 14.1667H18.3942V18.3333H11.7054V14.1667H12.5415V13.3333C12.5415 12.6703 12.8057 12.0344 13.2761 11.5656C13.7465 11.0967 14.3845 10.8333 15.0498 10.8333C15.715 10.8333 16.3531 11.0967 16.8235 11.5656C17.2939 12.0344 17.5581 12.6703 17.5581 13.3333V14.1667ZM15.8859 14.1667V13.3333C15.8859 13.1123 15.7978 12.9004 15.641 12.7441C15.4842 12.5878 15.2715 12.5 15.0498 12.5C14.828 12.5 14.6154 12.5878 14.4586 12.7441C14.3018 12.9004 14.2137 13.1123 14.2137 13.3333V14.1667H15.8859Z" fill="#FFF7E9"/>
</svg>
