 <svg width="149" height="149" viewBox="0 0 99 99" fill="none" xmlns="http://www.w3.org/2000/svg">
<g clip-path="url(#clip0_52_21)">
<path d="M63.4915 74.6831C66.6316 75.124 71.6203 77.4211 73.3451 80.0199C73.5539 80.3447 73.987 80.8242 73.9948 81.18C74.0102 81.7678 73.4766 82.17 73.0821 82.5258C67.3973 87.6614 57.3272 89.0845 51.9982 84.0031C51.2557 83.2915 51.8899 82.3247 52.207 81.4894C53.4987 78.1559 56.7162 75.4488 60.2276 74.7605C61.3259 74.5439 62.4241 74.5362 63.4915 74.6831ZM36.7615 77.2896C33.6059 76.988 28.215 78.0631 25.9334 80.19C25.6549 80.453 25.1213 80.8242 25.0284 81.1723C24.8738 81.7369 25.2991 82.2551 25.6085 82.696C29.9475 89.0072 39.4066 92.7429 45.772 89.0304C46.6615 88.5122 46.2748 87.4217 46.151 86.5322C45.6715 82.9899 43.1655 79.6022 39.9171 78.1249C38.8962 77.6609 37.8366 77.3902 36.7615 77.2896Z" fill="#BDCF46"/>
<mask id="mask0_52_21" style="mask-type:luminance" maskUnits="userSpaceOnUse" x="0" y="0" width="99" height="105">
<path d="M0 0V104.422H99V0H0ZM59.4464 52.5009C52.3927 56.0587 42.2761 56.2057 35.9494 50.753C29.1122 44.8748 26.6836 35.3616 31.7341 27.3023C32.3606 26.2969 32.9948 25.2682 33.6909 24.3169C35.6013 21.7181 38.4244 19.7149 41.4253 18.81C41.6264 18.7481 41.8275 18.694 42.0286 18.6476C42.9413 18.4155 43.8694 18.2299 44.7975 17.9979C47.3112 17.3559 49.9409 17.6266 52.4777 17.9205C55.4168 18.2609 59.0752 20.0475 61.4573 21.8728C71.0557 29.2127 70.2668 47.0482 59.4464 52.5009Z" fill="white"/>
</mask>
<g mask="url(#mask0_52_21)">
<path d="M50.9927 93.7252C50.8845 94.1042 50.753 94.4831 50.606 94.8467C50.3353 95.5196 50.0724 96.2002 49.7862 96.8731C49.5464 97.4299 49.2989 98.1106 48.6724 98.3503C47.8835 98.652 46.8858 98.5128 46.1046 98.2885C42.8252 97.3294 43.6915 94.1738 44.5113 91.8767C46.1665 87.1896 46.793 77.0344 47.1333 72.1308C47.4891 67.0648 46.9322 61.7435 46.9322 56.6698C46.9322 56.5692 46.9399 54.5119 46.8626 54.5119H53.3285V56.8864C53.3285 60.5602 53.3363 64.234 53.2589 67.9001C53.0965 74.6832 52.9495 87.1355 50.9927 93.7252Z" fill="#757F3F"/>
</g>
<path d="M59.4464 52.5009C52.3927 56.0587 42.2761 56.2057 35.9494 50.7529C29.1122 44.8748 26.6836 35.3615 31.7341 27.3023C32.3606 26.2968 32.9948 25.2682 33.6909 24.3168C35.6013 21.7181 38.4244 19.7149 41.4253 18.81C41.6264 18.7481 41.8275 18.694 42.0286 18.6476C42.9412 18.4155 43.8694 18.2299 44.7975 17.9979C47.3112 17.3559 49.9409 17.6266 52.4777 17.9205C55.4168 18.2608 59.0752 20.0475 61.4573 21.8728C71.0557 29.2127 70.2668 47.0482 59.4464 52.5009Z" fill="#865A3D"/>
<path d="M87.1741 37.0554C83.9334 32.8092 82.2009 34.0081 77.8465 33.7838C77.0266 33.7374 70.4679 34.1937 70.3596 33.1186C70.2436 31.9739 76.6786 30.1641 77.5448 29.8238C80.2055 28.7642 82.3943 27.8902 83.5158 25.4538C83.7865 24.8738 84.1345 23.3733 83.5931 21.6021C82.9589 19.5293 78.7591 17.9128 76.9648 18.2067C75.7273 18.4156 74.1881 18.5935 72.7186 19.1813C71.8446 19.5371 67.9542 21.664 67.0029 21.3856C65.8814 21.0453 69.8956 17.9902 70.3132 17.5338C71.0944 16.6676 72.0534 16.0488 72.6413 15.0511C73.3838 13.7904 74.2732 12.143 74.2577 10.658C74.25 9.784 73.3373 7.34768 72.3319 6.80627C68.047 4.49369 65.3168 7.65705 62.1534 11.6635C61.8363 12.0656 58.526 16.2345 58.0542 16.366C57.7913 16.4433 60.9778 10.4105 61.0706 10.2017C62.3081 7.34768 61.759 4.80307 60.9159 2.18111C60.7381 1.63197 59.7403 0.912676 58.9127 0.641973C58.4409 0.487286 56.7935 -0.038652 56.2134 0.023223C52.586 0.433145 51.3563 2.10377 49.1133 6.03283C48.5951 6.94549 47.4659 13.017 47.0559 13.9451C46.4836 15.2213 45.8726 9.03377 45.772 8.26033C45.6471 7.36964 45.424 6.49549 45.1069 5.65385C44.7898 4.85721 44.4727 3.99869 44.0318 3.35674C43.5291 2.63744 42.9413 1.94135 42.2529 1.40768C41.1005 0.525957 39.1669 -0.0541208 37.4653 0.409942C36.9084 0.564629 36.7151 0.61877 36.2974 0.881739C34.0777 2.25846 33.513 5.63065 33.6136 7.81174C33.7683 11.1298 37.272 16.1803 37.357 17.4797C36.3902 17.0621 31.8424 10.1939 30.1409 9.19619C27.7045 7.7576 26.2891 7.19299 23.3578 8.11338C23.033 8.21393 21.8187 9.35088 21.5093 9.48236C21.0607 9.68346 21.3546 9.86135 21.1458 10.1166C20.5038 10.8978 20.3723 12.6612 20.5116 13.4269C20.7513 14.8113 21.285 15.9251 21.896 17.209C22.0662 17.5571 22.7081 18.431 22.9015 18.7636C23.3269 19.4829 23.9456 20.1171 24.4561 20.7823C24.5876 20.9524 30.5817 24.8428 30.2801 24.9279C29.847 25.0594 24.5644 22.7932 24.139 22.7468C23.6904 22.7004 17.0388 18.3614 13.6434 22.1435C12.9706 22.8938 12.1043 23.8374 11.9573 25.3069C11.8877 26.1035 11.7717 27.867 12.1043 28.4703C13.133 30.2956 13.9451 31.2856 15.6466 32.4767C16.4588 33.049 19.4674 33.8998 20.3491 34.3252C20.6895 34.4876 25.5621 34.4335 25.245 34.9903C25.1367 35.1914 20.527 35.6555 20.2718 35.7096C18.3459 36.1737 17.3714 36.2897 16.0256 37.0167C14.6334 37.7824 9.16524 38.9426 11.8491 46.1201C12.4369 47.6824 13.6666 48.3553 15.1052 48.657C16.4665 48.9431 18.4465 48.5796 20.1171 48.1156C21.169 47.8217 26.9543 45.1146 28.0371 45.4163C29.1277 45.7256 24.75 47.9454 24.3556 48.2703C23.6285 48.8735 20.5734 51.6192 20.1171 52.4313C19.189 54.0633 18.8796 54.5583 18.3382 56.3527C17.8509 57.9846 17.7117 58.9514 17.8664 60.6607C17.936 61.4496 18.1603 62.3932 18.9724 62.7413C19.8 63.0893 21.2541 63.0352 22.0043 63.0352C24.1854 63.0352 25.508 62.1689 27.4338 61.1789C28.2537 60.7613 29.0348 60.4596 29.7696 59.7635C30.2182 59.3381 33.7296 53.1816 34.3716 53.4291C34.3561 53.4213 31.332 62.3159 31.2856 62.5789C30.9684 64.3423 30.9066 66.1521 31.417 67.8769C31.7091 68.8838 32.2247 69.8117 32.9252 70.5917C33.4202 71.1408 34.5263 71.5275 35.3616 71.543C39.0818 71.6358 41.2397 68.6271 42.5468 64.234C42.6241 63.971 44.1865 58.9592 44.434 58.8354C45.1688 58.4487 45.2306 64.9069 45.2848 65.3246C45.424 66.5156 45.8803 68.2791 46.4913 69.3232C47.2725 70.669 48.1465 71.7363 49.3453 72.7186C50.3121 73.5075 51.9905 73.6467 53.2744 73.7937C53.6688 73.8401 54.6743 73.6003 55.0533 73.492C55.6875 73.2987 56.9791 71.9993 57.2576 71.4347C58.6111 68.7354 57.9073 66.6317 57.3272 63.7313C57.2576 63.3755 55.556 57.2576 55.8113 56.9714C56.2676 56.4687 58.6962 62.5943 58.8818 62.9501C59.5238 64.1567 60.9856 66.0671 61.991 67.0106C63.2981 68.2481 65.0616 68.8128 66.6239 69.0912C67.7841 69.3 70.1121 69.0216 71.017 68.2404C71.9065 67.4824 72.3396 66.3378 72.5562 64.845C72.7805 63.3059 72.5948 62.4087 72.1695 60.916C72.0302 60.4287 71.6822 59.6398 71.5662 59.431C70.8546 58.1393 65.688 51.9596 65.8737 51.9363C66.6007 51.859 72.3783 56.4145 73.0357 56.7317C74.3119 57.3504 75.7505 57.6675 77.1504 57.946C78.357 58.1935 79.463 58.0156 80.685 57.9769C80.9093 57.9692 82.0076 57.3813 83.044 56.2831C83.7401 55.5483 83.8329 54.1871 83.8329 53.7075C83.8329 51.8358 83.4539 51.0005 81.9921 49.1442C81.412 48.4172 80.4994 47.8294 79.4939 47.2493C78.8906 46.909 71.2027 45.076 70.9088 44.4727C70.6226 43.8849 78.1713 45.076 78.6199 45.0373C79.7956 44.9367 81.1491 45.1688 82.2473 44.9367C83.9102 44.581 85.5113 44.086 86.4548 43.2738C88.3498 41.6651 88.0481 38.2001 87.1741 37.0554ZM59.4464 52.501C52.3927 56.0588 42.2761 56.2057 35.9494 50.753C29.1122 44.8749 26.6836 35.3616 31.7341 27.3024C32.3606 26.2969 32.9948 25.2682 33.6909 24.3169C35.6013 21.7181 38.4244 19.7149 41.4253 18.81C41.6264 18.7481 41.8275 18.694 42.0286 18.6476C42.9413 18.4156 43.8694 18.2299 44.7975 17.9979C47.3112 17.356 49.9409 17.6267 52.4777 17.9206C55.4168 18.2609 59.0752 20.0475 61.4573 21.8728C71.0557 29.2128 70.2668 47.0482 59.4464 52.501Z" fill="#FCC21B"/>
<path d="M49.2138 25.0207C47.025 24.9202 43.5987 25.4848 41.7656 26.9156C38.4321 29.5453 36.6996 34.2169 37.5194 38.4244C37.7979 39.8475 38.378 41.2242 39.2829 42.4463C43.3048 47.8913 52.3308 47.8062 57.0719 43.4131C63.9323 37.0554 57.7448 25.4229 49.2138 25.0207Z" fill="#FCC21B"/>
<path opacity="0.35" d="M59.4464 52.5009C52.3927 56.0587 42.2761 56.2057 35.9494 50.7529C29.1122 44.8748 26.6836 35.3615 31.7341 27.3023C32.3606 26.2968 32.9948 25.2682 33.6909 24.3168C35.6013 21.7181 38.4244 19.7149 41.4253 18.81C41.6264 18.7481 41.8275 18.694 42.0286 18.6476C42.9412 18.4155 43.8694 18.2299 44.7975 17.9979C47.3112 17.3559 49.9409 17.6266 52.4777 17.9205C55.4168 18.2608 59.0752 20.0475 61.4573 21.8728C71.0557 29.2127 70.2668 47.0482 59.4464 52.5009Z" fill="#FCC21B"/>
</g>
<defs>
<clipPath id="clip0_52_21">
<rect width="99" height="99" fill="white"/>
</clipPath>
</defs>
</svg>
