<svg width="200" height="200" viewBox="0 0 99 99" fill="none" xmlns="http://www.w3.org/2000/svg">
<g clip-path="url(#clip0_52_32)">
<path d="M27.5344 82.7578C41.0326 82.7578 51.975 72.2309 51.975 59.2453C51.975 46.2597 41.0326 35.7328 27.5344 35.7328C14.0362 35.7328 3.09375 46.2597 3.09375 59.2453C3.09375 72.2309 14.0362 82.7578 27.5344 82.7578Z" fill="#83BF4F"/>
<path d="M27.5344 55.3781C40.3491 55.3781 50.7375 45.4053 50.7375 33.1031C50.7375 20.801 40.3491 10.8281 27.5344 10.8281C14.7196 10.8281 4.33125 20.801 4.33125 33.1031C4.33125 45.4053 14.7196 55.3781 27.5344 55.3781Z" fill="#83BF4F"/>
<path d="M52.9031 49.1906C66.145 49.1906 76.8797 38.8715 76.8797 26.1422C76.8797 13.4129 66.145 3.09375 52.9031 3.09375C39.6612 3.09375 28.9266 13.4129 28.9266 26.1422C28.9266 38.8715 39.6612 49.1906 52.9031 49.1906Z" fill="#83BF4F"/>
<path d="M75.7969 63.4219C86.903 63.4219 95.9062 54.7649 95.9062 44.0859C95.9062 33.407 86.903 24.75 75.7969 24.75C64.6908 24.75 55.6875 33.407 55.6875 44.0859C55.6875 54.7649 64.6908 63.4219 75.7969 63.4219Z" fill="#83BF4F"/>
<path d="M61.1016 81.5203C72.2077 81.5203 81.2109 72.8633 81.2109 62.1844C81.2109 51.5054 72.2077 42.8484 61.1016 42.8484C49.9955 42.8484 40.9922 51.5054 40.9922 62.1844C40.9922 72.8633 49.9955 81.5203 61.1016 81.5203Z" fill="#83BF4F"/>
<path d="M44.7047 99C45.1687 92.8125 44.2406 86.3156 43.3125 79.5094C42.3844 72.7031 41.1469 65.7422 41.1469 58.6265C40.9922 51.5109 41.9203 44.2406 44.3953 37.589C46.7156 30.9375 50.2734 24.9047 54.45 19.4906C50.8922 25.3687 48.2625 31.7109 46.8703 38.3625C45.4781 44.8593 45.4781 51.6656 46.4062 58.1625C47.3344 64.6593 49.1906 71.1562 51.2016 77.8078C53.0578 84.4593 55.0688 91.4203 55.5328 99H44.7047Z" fill="#947151"/>
<path d="M43.9312 55.9969C47.025 56.3063 50.4281 56.1516 53.6766 55.8422C56.925 55.5328 60.1734 54.7594 63.2672 53.6766C66.3609 52.5938 69.3 51.0469 71.9297 49.0359C74.5594 47.025 76.8797 44.55 78.5812 41.6109C77.0344 44.55 75.0234 47.3344 72.3937 49.6547C69.9187 51.975 66.9797 53.6766 63.7313 55.0687C60.6375 56.4609 57.2344 57.3891 53.9859 58.1625C50.5828 58.7812 47.1797 59.2453 43.6219 59.0906L43.9312 55.9969ZM43.0031 53.8312C40.6828 52.4391 38.6719 50.8922 36.8156 49.3453C34.9594 47.6437 33.1031 45.7875 31.5562 43.9312C28.4625 39.9094 26.1422 35.1141 25.8328 30.1641C26.6063 35.1141 29.3906 39.4453 32.7938 42.8484C34.4953 44.55 36.3516 46.0969 38.3625 47.4891C40.3734 48.8813 42.5391 50.1187 44.55 51.0469L43.0031 53.8312ZM45.4781 71.4656C42.8484 71.3109 40.3734 70.8469 37.8984 70.2281C35.4234 69.6094 33.1031 68.6812 30.7828 67.4437C26.2969 64.9687 22.4297 61.4109 20.1094 56.925C22.8937 61.1016 26.9156 64.1953 31.4016 65.8969C33.5672 66.825 36.0422 67.4438 38.3625 67.9078C40.6828 68.3719 43.1578 68.5266 45.4781 68.3719V71.4656Z" fill="#947151"/>
<path d="M15.1594 64.814C15.1594 68.2172 12.375 71.0015 12.375 71.0015C12.375 71.0015 9.59063 68.2172 9.59063 64.814C9.59063 61.4109 12.375 58.6265 12.375 58.6265C12.375 58.6265 15.1594 61.4109 15.1594 64.814ZM86.7797 51.5109C86.7797 54.914 83.9953 57.6984 83.9953 57.6984C83.9953 57.6984 81.2109 54.914 81.2109 51.5109C81.2109 48.1078 83.9953 45.3234 83.9953 45.3234C83.9953 45.3234 86.7797 48.1078 86.7797 51.5109ZM22.8938 72.7031C22.8938 76.1062 20.1094 78.8906 20.1094 78.8906C20.1094 78.8906 17.325 76.1062 17.325 72.7031C17.325 69.3 20.1094 66.5156 20.1094 66.5156C20.1094 66.5156 22.8938 69.3 22.8938 72.7031ZM15.1594 32.3297C15.1594 35.7328 12.375 38.5172 12.375 38.5172C12.375 38.5172 9.59063 35.7328 9.59063 32.3297C9.59063 28.9265 12.375 26.1422 12.375 26.1422C12.375 26.1422 15.1594 28.9265 15.1594 32.3297ZM22.8938 23.3578C22.8938 26.7609 20.1094 29.5453 20.1094 29.5453C20.1094 29.5453 17.325 26.7609 17.325 23.3578C17.325 19.9547 20.1094 17.1703 20.1094 17.1703C20.1094 17.1703 22.8938 19.9547 22.8938 23.3578ZM62.6484 27.8437C62.6484 31.2469 59.8641 34.0312 59.8641 34.0312C59.8641 34.0312 57.2344 31.2469 57.2344 27.8437C57.2344 24.4406 60.0187 21.6562 60.0187 21.6562C60.0187 21.6562 62.6484 24.4406 62.6484 27.8437ZM70.3828 19.4906C70.3828 22.8937 67.5984 25.6781 67.5984 25.6781C67.5984 25.6781 64.8141 22.8937 64.8141 19.4906C64.8141 16.0875 67.5984 13.3031 67.5984 13.3031C67.5984 13.3031 70.3828 16.0875 70.3828 19.4906ZM34.3406 55.3781C34.3406 58.7812 31.5563 61.5656 31.5563 61.5656C31.5563 61.5656 28.7719 58.7812 28.7719 55.3781C28.7719 51.975 31.5563 49.1906 31.5563 49.1906C31.5563 49.1906 34.3406 51.975 34.3406 55.3781ZM25.6781 47.489C25.6781 50.8922 22.8938 53.6765 22.8938 53.6765C22.8938 53.6765 20.1094 50.8922 20.1094 47.489C20.1094 44.0859 22.8938 41.3015 22.8938 41.3015C22.8938 41.3015 25.6781 44.0859 25.6781 47.489ZM40.3734 32.3297C40.3734 35.7328 37.5891 38.5172 37.5891 38.5172C37.5891 38.5172 34.8047 35.7328 34.8047 32.3297C34.8047 28.9265 37.5891 26.1422 37.5891 26.1422C37.5891 26.1422 40.3734 28.9265 40.3734 32.3297ZM46.4062 21.6562C46.4062 25.0594 43.6219 27.8437 43.6219 27.8437C43.6219 27.8437 40.8375 25.0594 40.8375 21.6562C40.8375 18.2531 43.6219 15.4687 43.6219 15.4687C43.6219 15.4687 46.4062 18.2531 46.4062 21.6562ZM54.7594 47.489C54.7594 50.8922 51.975 53.6765 51.975 53.6765C51.975 53.6765 49.1906 50.8922 49.1906 47.489C49.1906 44.0859 51.975 41.3015 51.975 41.3015C51.975 41.3015 54.7594 44.0859 54.7594 47.489ZM75.7969 61.5656C75.7969 64.9687 73.0125 67.7531 73.0125 67.7531C73.0125 67.7531 70.2281 64.9687 70.2281 61.5656C70.2281 58.1625 73.0125 55.3781 73.0125 55.3781C73.0125 55.3781 75.7969 58.1625 75.7969 61.5656ZM70.3828 35.7328C70.3828 39.1359 67.5984 41.9203 67.5984 41.9203C67.5984 41.9203 64.8141 39.1359 64.8141 35.7328C64.8141 32.3297 67.5984 29.5453 67.5984 29.5453C67.5984 29.5453 70.3828 32.3297 70.3828 35.7328ZM61.1016 66.5156C61.1016 69.9187 58.3172 72.7031 58.3172 72.7031C58.3172 72.7031 55.5328 69.9187 55.5328 66.5156C55.5328 63.1125 58.3172 60.3281 58.3172 60.3281C58.3172 60.3281 61.1016 63.1125 61.1016 66.5156ZM68.3719 73.4765C68.3719 76.8797 65.5875 79.664 65.5875 79.664C65.5875 79.664 62.8031 76.8797 62.8031 73.4765C62.8031 70.0734 65.5875 67.289 65.5875 67.289C65.5875 67.289 68.3719 70.0734 68.3719 73.4765Z" fill="#75A843"/>
</g>
<defs>
<clipPath id="clip0_52_32">
<rect width="99" height="99" fill="white"/>
</clipPath>
</defs>
</svg>
