<svg width="70" height="70" viewBox="0 0 99 99" fill="none" xmlns="http://www.w3.org/2000/svg">
<path d="M4.89586 51.333V95.9758H94.661V51.1629C94.661 51.1629 76.7018 38.7724 75.8742 38.6564C75.0466 38.5404 50.9231 16.4587 50.9231 16.4587L24.3323 37.9062L4.89586 51.333Z" fill="#F8C778"/>
<path d="M4.89586 51.2866H26.088L26.0648 95.9295H29.584L29.6072 41.58L50.3972 23.2805L71.3728 42.4617L71.3187 95.9295H74.6135L74.6677 51.0314L94.661 51.1706V48.5023L76.4234 38.726L52.0291 17.2941L25.098 38.2852L4.91133 48.7343L4.89586 51.2866Z" fill="#F5B03F"/>
<path d="M10.132 32.9252C9.99281 33.1495 4.60195 48.015 4.50141 48.3244C4.40086 48.6337 4.6561 48.9973 5.27485 49.0514C5.8936 49.1055 27.2327 49.0514 27.2327 49.0514L27.1709 39.9403C27.1709 39.9403 50.0801 19.3205 50.3353 19.3205C50.5906 19.3205 73.6777 40.474 73.7318 40.7911C73.7859 41.1005 73.8323 48.6956 73.8323 48.6956C73.8323 48.6956 94.1351 48.8503 94.5527 48.9044C94.9704 48.9586 95.0709 48.3862 94.7074 47.3034C94.3439 46.2206 90.1055 33.1495 89.7961 32.9407C89.4867 32.7319 72.7495 32.7319 72.7495 32.7319C72.7495 32.7319 51.7816 13.4269 51.4181 13.1175C51.0546 12.8081 49.9718 12.3363 49.0127 13.2954C48.1697 14.1384 27.2559 32.8866 27.2559 32.8866C27.2559 32.8866 10.2867 32.6623 10.132 32.9252Z" fill="#A62714"/>
<path d="M33.9616 62.3313L33.9539 95.9604H66.7167V62.3313C66.7167 62.3313 33.9616 62.2463 33.9616 62.3313Z" fill="#CF6150"/>
<path d="M2.81531 96.0996C3.10148 96.5328 6.44273 96.3317 15.345 96.3781C24.2473 96.4245 26.8383 96.409 27.3023 96.3162C27.7587 96.2234 28.1299 94.2202 27.8283 92.4799C27.4957 90.5696 26.351 88.7674 24.4948 88.1874C22.012 87.4139 20.4806 88.1255 19.2895 87.7078C18.0984 87.2979 14.6102 85.5499 11.0756 85.782C8.04374 85.9753 5.88585 86.8648 4.0064 89.6337C1.98773 92.6114 2.62968 95.8212 2.81531 96.0996ZM97.5227 95.914C97.9791 95.5969 97.9404 86.8107 91.8302 86.1378C87.2437 85.635 86.0449 87.6073 85.2715 87.6073C84.4903 87.6073 81.5203 86.161 77.4211 87.7465C72.3241 89.7188 72.4169 95.4577 72.6026 96.0068C72.7882 96.556 78.063 96.4167 85.3101 96.4631C92.5573 96.5096 96.9272 96.3317 97.5227 95.914Z" fill="#7DB240"/>
<path d="M8.94867 53.8544H23.4042V65.4947H8.75531C8.75531 65.4947 8.84812 53.9472 8.94867 53.8544ZM8.75531 70.9319H23.149V82.1932H8.63156C8.63156 82.2009 8.69344 70.8701 8.75531 70.9319Z" fill="#3E737C"/>
<path d="M11.1375 55.9814H20.9602V63.6771H11.0137C11.0137 63.6771 10.9441 56.0433 11.1375 55.9814ZM10.6966 72.8114H21.0839V80.2596H10.6966V72.8114Z" fill="#A7D0D7"/>
<path d="M77.0885 54.5428H91.4822V66.1212H77.0266C77.0266 66.1212 77.0885 54.3572 77.0885 54.5428Z" fill="#3E737C"/>
<path d="M79.0917 56.546H89.4171V64.0561H79.0917V56.546Z" fill="#A7D0D7"/>
<path d="M76.9029 71.6203H91.2347V82.5722H76.9029C76.9029 82.5722 76.8101 71.7208 76.9029 71.6203Z" fill="#3E737C"/>
<path d="M79.1536 73.6235V80.3834H88.9762V73.5617C88.9762 73.5617 79.0608 73.5307 79.1536 73.6235Z" fill="#A7D0D7"/>
<path d="M38.7183 95.9759L38.7105 65.9974H62.3004V95.9759H38.7183Z" fill="#3E737C"/>
<path d="M59.5083 72.1153V68.1708H41.6264V72.1153H59.5083ZM41.6264 74.0876H59.5083V84.3511H41.6264V74.0876ZM41.6264 86.4626H59.5083V91.8302H41.6264V86.4626Z" fill="#A7D0D7"/>
<path d="M49.7166 73.2059V93.4003H51.7584V72.9971C51.7584 72.9971 49.8558 73.2059 49.7166 73.2059ZM49.8558 30.9839C41.8352 31.0535 36.4598 37.0322 36.8698 44.7202C37.2642 52.1916 43.1965 56.8786 50.0569 56.6853C57.2653 56.4842 62.4319 50.6989 62.633 43.8385C62.8341 36.9781 57.2653 30.9221 49.8558 30.9839Z" fill="#3E737C"/>
<path d="M49.6547 33.2965C43.1269 33.2965 38.7724 38.262 39.0509 44.2407C39.3138 50.0105 43.1965 54.3727 49.8635 54.3727C55.9814 54.3727 60.0033 49.3453 60.127 44.171C60.2585 38.5249 56.0433 33.2965 49.6547 33.2965Z" fill="white"/>
<path d="M47.752 44.4417C47.752 44.4417 43.9622 47.6283 43.7534 47.9995C43.5445 48.3708 43.5523 48.9818 44.055 49.3917C44.5655 49.8017 45.0682 49.5619 45.3776 49.3221C45.6792 49.0824 49.6779 45.803 49.6779 45.803C49.6779 45.803 50.9695 45.7798 51.2712 44.2484C51.5109 43.0263 50.6292 42.454 50.6292 42.454C50.6292 42.454 50.49 35.1373 50.4281 34.5959C50.374 34.1937 49.9563 33.8147 49.5851 33.8534C49.2138 33.8843 48.8426 34.0931 48.8039 34.6964C48.7652 35.2997 48.7266 42.307 48.7266 42.307C48.7266 42.307 48.1852 42.5081 47.8835 43.0882C47.5819 43.6606 47.752 44.4417 47.752 44.4417Z" fill="#2F2F2F"/>
</svg>
