<svg width="25" height="25" viewBox="0 0 40 40" fill="none" xmlns="http://www.w3.org/2000/svg">
<path d="M6.66683 33.3333C5.75016 33.3333 4.96572 33.0072 4.3135 32.355C3.66127 31.7028 3.33461 30.9178 3.3335 30V9.99999C3.3335 9.08332 3.66016 8.29888 4.3135 7.64666C4.96683 6.99443 5.75127 6.66777 6.66683 6.66666H33.3335C34.2502 6.66666 35.0352 6.99332 35.6885 7.64666C36.3418 8.29999 36.6679 9.08443 36.6668 9.99999V30C36.6668 30.9167 36.3407 31.7017 35.6885 32.355C35.0363 33.0083 34.2513 33.3344 33.3335 33.3333H6.66683ZM20.0002 21.6667L6.66683 13.3333V30H33.3335V13.3333L20.0002 21.6667ZM20.0002 18.3333L33.3335 9.99999H6.66683L20.0002 18.3333ZM6.66683 13.3333V9.99999V30V13.3333Z" fill="#000022"/>
</svg>
