<svg width="25" height="25" viewBox="0 0 40 40" fill="none" xmlns="http://www.w3.org/2000/svg">
<path d="M24.9999 30V31.25C24.9999 32.5761 24.4731 33.8479 23.5354 34.7855C22.5977 35.7232 21.326 36.25 19.9999 36.25C18.6738 36.25 17.402 35.7232 16.4644 34.7855C15.5267 33.8479 14.9999 32.5761 14.9999 31.25V30M33.4124 27.4555C31.4061 25 29.9897 23.75 29.9897 16.9805C29.9897 10.7813 26.8241 8.57266 24.2186 7.5C23.8726 7.35781 23.5468 7.03125 23.4413 6.67578C22.9843 5.12031 21.703 3.75 19.9999 3.75C18.2968 3.75 17.0147 5.12109 16.5624 6.67734C16.4569 7.03672 16.1311 7.35781 15.7851 7.5C13.1765 8.57422 10.014 10.775 10.014 16.9805C10.0101 23.75 8.59365 25 6.5874 27.4555C5.75615 28.4727 6.48427 30 7.93818 30H32.0694C33.5155 30 34.239 28.468 33.4124 27.4555Z" stroke="#000022" stroke-width="3" stroke-linecap="round" stroke-linejoin="round"/>
</svg>
